<svg width="235" height="36" viewBox="0 0 235 36" fill="none" xmlns="http://www.w3.org/2000/svg">
<path d="M0.326563 35V1.4H12.1346C14.5026 1.4 16.4546 1.784 17.9906 2.552C19.5586 3.288 20.7266 4.312 21.4946 5.624C22.2626 6.904 22.6466 8.344 22.6466 9.944C22.6466 11.672 22.2626 13.112 21.4946 14.264C20.7586 15.416 19.7826 16.296 18.5666 16.904C17.3826 17.512 16.1186 17.88 14.7746 18.008L15.4466 17.528C16.8866 17.56 18.2146 17.944 19.4306 18.68C20.6466 19.416 21.6066 20.408 22.3106 21.656C23.0466 22.904 23.4146 24.296 23.4146 25.832C23.4146 27.528 22.9986 29.08 22.1666 30.488C21.3346 31.864 20.1026 32.968 18.4706 33.8C16.8706 34.6 14.8866 35 12.5186 35H0.326563ZM4.35856 31.64H12.0866C14.3586 31.64 16.1186 31.112 17.3666 30.056C18.6466 28.968 19.2866 27.464 19.2866 25.544C19.2866 23.656 18.6306 22.152 17.3186 21.032C16.0386 19.88 14.2626 19.304 11.9906 19.304H4.35856V31.64ZM4.35856 16.088H11.8466C14.0226 16.088 15.6706 15.576 16.7906 14.552C17.9426 13.528 18.5186 12.136 18.5186 10.376C18.5186 8.68 17.9426 7.32 16.7906 6.296C15.6706 5.272 13.9746 4.76 11.7026 4.76H4.35856V16.088ZM29.2484 35V1.4H33.2804V31.784H48.9284V35H29.2484ZM65.2038 35.576C62.8998 35.576 60.8038 35.112 58.9158 34.184C57.0598 33.256 55.5718 31.848 54.4518 29.96C53.3318 28.04 52.7718 25.592 52.7718 22.616V1.4H56.8038V22.664C56.8038 24.84 57.1558 26.616 57.8598 27.992C58.5958 29.368 59.6038 30.376 60.8838 31.016C62.1638 31.656 63.6358 31.976 65.2998 31.976C66.9958 31.976 68.4678 31.656 69.7158 31.016C70.9638 30.376 71.9398 29.368 72.6438 27.992C73.3478 26.616 73.6998 24.84 73.6998 22.664V1.4H77.7318V22.616C77.7318 25.592 77.1718 28.04 76.0518 29.96C74.9318 31.848 73.4278 33.256 71.5398 34.184C69.6518 35.112 67.5398 35.576 65.2038 35.576ZM84.5609 35V1.4H105.345V4.712H88.5929V16.424H103.905V19.688H88.5929V31.688H105.345V35H84.5609ZM121.59 35.576C118.934 35.576 116.758 35.096 115.062 34.136C113.366 33.176 112.118 31.896 111.318 30.296C110.518 28.664 110.134 26.872 110.166 24.92H111.222C111.19 26.648 111.51 28.248 112.182 29.72C112.886 31.192 113.99 32.376 115.494 33.272C117.03 34.168 119.046 34.616 121.542 34.616C123.814 34.616 125.654 34.248 127.062 33.512C128.502 32.776 129.558 31.784 130.23 30.536C130.902 29.288 131.238 27.912 131.238 26.408C131.238 24.552 130.806 23.08 129.942 21.992C129.11 20.872 128.022 19.992 126.678 19.352C125.366 18.68 123.942 18.12 122.406 17.672C120.87 17.192 119.43 16.68 118.086 16.136C116.23 15.4 114.71 14.456 113.526 13.304C112.374 12.152 111.798 10.584 111.798 8.6C111.798 7.192 112.134 5.912 112.806 4.76C113.51 3.576 114.566 2.632 115.974 1.928C117.382 1.192 119.126 0.823999 121.206 0.823999C122.998 0.823999 124.614 1.128 126.054 1.736C127.494 2.344 128.646 3.304 129.51 4.616C130.374 5.896 130.806 7.576 130.806 9.656H129.75C129.75 7.704 129.366 6.152 128.598 5C127.862 3.848 126.838 3.032 125.526 2.552C124.246 2.04 122.806 1.784 121.206 1.784C119.19 1.784 117.558 2.12 116.31 2.792C115.094 3.432 114.214 4.264 113.67 5.288C113.126 6.312 112.854 7.416 112.854 8.6C112.854 10.2 113.27 11.48 114.102 12.44C114.966 13.4 116.07 14.168 117.414 14.744C118.758 15.32 120.198 15.848 121.734 16.328C123.302 16.808 124.806 17.368 126.246 18.008C127.366 18.52 128.374 19.144 129.27 19.88C130.198 20.584 130.934 21.464 131.478 22.52C132.022 23.576 132.294 24.872 132.294 26.408C132.294 28.136 131.894 29.688 131.094 31.064C130.326 32.44 129.158 33.544 127.59 34.376C126.022 35.176 124.022 35.576 121.59 35.576ZM144.608 35V2.264H134.384V1.4H155.792V2.264H145.568V35H144.608ZM154.779 35L167.019 1.4H168.171L180.219 35H179.211L167.595 2.504L155.787 35H154.779ZM159.531 22.712L159.963 21.848H175.131L175.563 22.712H159.531ZM195.277 35.576C192.621 35.576 190.445 35.096 188.749 34.136C187.053 33.176 185.805 31.896 185.005 30.296C184.205 28.664 183.821 26.872 183.853 24.92H184.909C184.877 26.648 185.197 28.248 185.869 29.72C186.573 31.192 187.677 32.376 189.181 33.272C190.717 34.168 192.733 34.616 195.229 34.616C197.501 34.616 199.341 34.248 200.749 33.512C202.189 32.776 203.245 31.784 203.917 30.536C204.589 29.288 204.925 27.912 204.925 26.408C204.925 24.552 204.493 23.08 203.629 21.992C202.797 20.872 201.709 19.992 200.365 19.352C199.053 18.68 197.629 18.12 196.093 17.672C194.557 17.192 193.117 16.68 191.773 16.136C189.917 15.4 188.397 14.456 187.213 13.304C186.061 12.152 185.485 10.584 185.485 8.6C185.485 7.192 185.821 5.912 186.493 4.76C187.197 3.576 188.253 2.632 189.661 1.928C191.069 1.192 192.813 0.823999 194.893 0.823999C196.685 0.823999 198.301 1.128 199.741 1.736C201.181 2.344 202.333 3.304 203.197 4.616C204.061 5.896 204.493 7.576 204.493 9.656H203.437C203.437 7.704 203.053 6.152 202.285 5C201.549 3.848 200.525 3.032 199.213 2.552C197.933 2.04 196.493 1.784 194.893 1.784C192.877 1.784 191.245 2.12 189.997 2.792C188.781 3.432 187.901 4.264 187.357 5.288C186.813 6.312 186.541 7.416 186.541 8.6C186.541 10.2 186.957 11.48 187.789 12.44C188.653 13.4 189.757 14.168 191.101 14.744C192.445 15.32 193.885 15.848 195.421 16.328C196.989 16.808 198.493 17.368 199.933 18.008C201.053 18.52 202.061 19.144 202.957 19.88C203.885 20.584 204.621 21.464 205.165 22.52C205.709 23.576 205.981 24.872 205.981 26.408C205.981 28.136 205.581 29.688 204.781 31.064C204.013 32.44 202.845 33.544 201.277 34.376C199.709 35.176 197.709 35.576 195.277 35.576ZM233.67 35V1.4H234.63V35H233.67ZM211.782 35V1.4H212.742V35H211.782ZM212.07 18.296V17.432H234.438V18.296H212.07Z" fill="#07254E"/>
</svg>
